PathFileType	4	(X/Y/Z)	Patient4_TMGait_0pt4_02_left_17.trc.trc
DataRate	CameraRate	NumFrames	NumMarkers	Units	OrigDataRate	OrigDataStartFrame	OrigNumFrames
71.428571428571	71.428571428571	4	33	mm	71.428571428571	18	       141
Frame#	Time	Sacral			L.Shoulder			Chest			R.Shoulder			Neck			R.ASIS			L.ASIS			R.Thigh.Superior			R.Thigh.Lateral			R.Thigh.Inferior			R.Patella			L.Thigh.Superior			L.Thigh.Lateral			L.Thigh.Inferior			L.Patella			L.Shank.Superior			L.Shank.Lateral			L.Shank.Inferior			R.Shank.Superior			R.Shank.Lateral			R.Shank.Inferior			R.Heel			R.Midfoot.Superior			R.Midfoot.Lateral			R.Toe			L.Heel			L.Midfoot.Lateral			L.Midfoot.Superior			L.Toe			L.Elbow			L.Wrist			R.Elbow			R.Wrist			
		X1	Y1	Z1	X2	Y2	Z2	X3	Y3	Z3	X4	Y4	Z4	X5	Y5	Z5	X6	Y6	Z6	X7	Y7	Z7	X8	Y8	Z8	X9	Y9	Z9	X10	Y10	Z10	X11	Y11	Z11	X12	Y12	Z12	X13	Y13	Z13	X14	Y14	Z14	X15	Y15	Z15	X16	Y16	Z16	X17	Y17	Z17	X18	Y18	Z18	X19	Y19	Z19	X20	Y20	Z20	X21	Y21	Z21	X22	Y22	Z22	X23	Y23	Z23	X24	Y24	Z24	X25	Y25	Z25	X26	Y26	Z26	X27	Y27	Z27	X28	Y28	Z28	X29	Y29	Z29	X30	Y30	Z30	X31	Y31	Z31	X32	Y32	Z32	X33	Y33	Z33	

18	22.948000000000	879.779078423085	1010.548099545393	520.028385615141	1046.714898196889	1431.784062485754	311.781945231072	1171.508364366810	1359.794414979694	454.832501305907	1119.943799583592	1437.800450604514	638.902572536814	1064.077330516014	1495.240667718713	466.426049829206	1118.449208460528	939.144102948778	603.921271012194	1069.812209882848	962.750061930192	333.484868390989	1129.175696745970	730.962373782532	574.227419350309	1041.412099846684	629.786647506682	643.744609546410	1102.310398936702	570.532984708636	557.733186037506	1091.691060031835	484.558582630425	564.948165710727	1142.990516988209	777.802319152749	358.774951454746	1094.770749549292	651.124034465138	279.758599922218	1197.236369029412	589.731554222375	341.216609958550	1225.062850952841	528.742907914106	335.496625170443	1211.299648457500	458.701212587542	323.598823169417	1151.566303594185	326.468011817657	269.685542856684	1244.693905862076	230.207414067977	321.741130993926	1056.499168105816	397.562112147727	573.189601865462	980.722976091106	300.788756583048	641.121090817050	1007.063853170646	203.099482958822	573.326028093497	858.715358860758	44.224273333944	552.690929546788	1032.498444711694	96.294118802084	577.123453427283	946.407590767652	37.501363282370	621.930759524365	1153.850203233815	40.736822096107	597.352937572557	1169.713869795875	48.057275429655	359.321745128534	1245.560426890762	51.763736732368	281.244422254941	1313.552880184356	132.787940585747	300.937136685356	1448.815426842245	106.543552933568	279.476051561507	940.703172817953	1091.407454475318	211.019442451415	982.827756722657	833.224253501978	181.140070642684	1233.512782158417	1114.000870336453	754.767725131411	1460.740164285344	1090.403117417893	644.302276321436	
19	22.962000000000	880.207998439392	1009.144479636344	517.835279407205	1045.674272310527	1430.910983722137	309.743324189473	1170.378355179154	1359.551657509518	453.164864928488	1117.928874587347	1437.320629788474	637.043111669633	1062.265365059828	1494.544757197898	464.464321015794	1118.841338077240	938.748316255690	602.716049739477	1070.891996153850	961.627048361258	332.036728046032	1129.067102003789	730.225629550628	573.164677433827	1040.590139115008	629.221544418601	642.564337773204	1101.268626908553	569.597530674453	556.891650551785	1089.976129503120	483.330931322255	564.000328411544	1143.660918114071	775.540272597898	357.068346216179	1093.148630423244	648.410866505105	279.792158282283	1195.966570873404	587.007032370907	340.160380605647	1223.128333697668	525.998552050000	335.307616637367	1209.259556138693	455.898326673766	324.117093231829	1148.957814223691	323.671698805449	271.471974606062	1241.871354971980	227.566480749278	323.662807553519	1053.995283664362	396.589454466641	572.337974268133	977.365949322996	300.591159079270	640.492579030669	1002.598696983045	202.570931245127	572.893525233569	853.115816962062	44.316864513899	552.683418977518	1026.881140938581	96.308279192429	577.088642101515	940.761347934072	37.524323833586	621.895549584092	1148.197203170830	40.670736982329	597.430683171053	1166.185702104250	47.006659436296	362.566880178055	1241.667894820769	49.584785722542	284.211195280627	1310.658071675902	129.390701927980	303.502817944791	1445.249506147121	101.347717392055	281.665884005004	941.755005428183	1090.006933021090	208.794692601897	984.472681907593	831.900330231132	179.215420502936	1234.293135936659	1113.213449823658	749.709178381687	1460.634500054119	1088.425034611003	637.289121369194	
20	22.976000000000	880.814794836305	1007.655561762517	515.351713309809	1044.584250822844	1429.966351777756	307.413367403663	1169.216949202301	1359.372845600527	451.254830889998	1115.775631490948	1436.887534462625	634.922326297024	1060.332057126145	1493.815803185801	462.195796465880	1119.420485295120	938.343754727598	601.321943597581	1072.260616014816	960.481493334537	330.412933334857	1129.119007415956	729.454571599623	571.954875140182	1039.856201940220	628.663533295383	641.252058794864	1100.336302193701	568.607013644215	555.968853437567	1088.328717943500	482.035529855365	562.933452003973	1144.971075999983	773.422113028061	355.197227365559	1092.056366707747	645.685187638666	279.993421166593	1195.319165223827	584.433260879772	339.213382087672	1221.611094420975	522.991819094529	335.313188781006	1207.216636186668	452.639772964716	324.892732746539	1145.334753252881	320.897866811883	273.596225713672	1237.218588584364	224.272081577416	325.988583361048	1051.551608586704	395.609292159848	571.403821528928	974.056776684289	300.406573942309	639.824573418691	998.137529665833	202.049013655832	572.437570389613	847.513274807148	44.400563699231	552.686634051872	1021.260149643205	96.325555370566	577.044625316363	935.126991655315	37.525905835561	621.861426285085	1142.561580540828	40.603344720733	597.508990620392	1159.409884213190	45.982023540631	366.164269033593	1234.387462598900	47.225549624194	287.378633590147	1305.013001903032	125.104403468561	306.490666593708	1438.667124011171	94.321429714668	283.847495662912	943.012704919318	1088.471215097071	206.247867296471	986.645602816972	830.509104213378	176.908435181791	1234.225196274914	1112.455960363546	745.042459430409	1459.662563468239	1085.898597205920	630.765389555667	
21	22.990000000000	881.581463041199	1006.120944091020	512.592670847471	1043.474558287735	1428.963055221683	304.792268258302	1168.053779699186	1359.250755476703	449.092374464628	1113.541341521219	1436.498754902978	632.538201238596	1058.326577670121	1493.065296941186	459.622226047405	1120.174792883534	937.932433038664	599.715885981600	1073.881718985366	959.335720670081	328.602648202739	1129.314468349711	728.648334277909	570.605441196440	1039.180833354152	628.122085489851	639.804992061898	1099.480876086114	567.573100478335	554.955694316974	1086.739184676617	480.682220695354	561.759245902766	1146.802068231464	771.418854785978	353.222615320484	1091.460755643930	643.010139419412	280.288040605114	1195.161715343571	582.007963176313	338.467634915211	1220.381936111476	519.800825175424	335.599053149187	1205.191838850132	449.062059530338	325.893792395961	1141.038076101668	318.155016223012	275.878793303128	1231.249468723545	220.493702280783	328.594475139753	1049.141237473230	394.629941750993	570.391848098407	970.765664393651	300.245037088918	639.114201072920	993.673587181419	201.540475136054	571.963593139977	841.904065553688	44.476513308769	552.705761175195	1015.642646921487	96.340659395328	576.992273487679	929.508137122405	37.503697285952	621.833803672417	1136.951299208504	40.533789819330	597.586885065305	1150.245415365205	44.900461945676	369.820649629584	1224.671124331835	44.799376721498	290.534049912386	1297.345668617960	120.239480824032	309.782255906507	1429.923794388189	86.118936843132	286.047749809813	944.433459836679	1086.827280930668	203.404239306012	989.323499969057	829.085063507828	174.230089508089	1233.317229672505	1111.690943753626	740.833136767865	1457.830344071087	1082.758292966460	624.836808485241	
